<?xml version="1.0" encoding="UTF-8"?>
<svg width="65px" height="85px" viewBox="0 0 65 85" version="1.1" xmlns="http://www.w3.org/2000/svg" xmlns:xlink="http://www.w3.org/1999/xlink">
    <!-- Generator: Sketch 46 (44423) - http://www.bohemiancoding.com/sketch -->
    <title>DOC</title>
    <desc>Created with Sketch.</desc>
    <defs></defs>
    <g id="Symbols" stroke="none" stroke-width="1" fill="none" fill-rule="evenodd">
        <g id="DOC">
            <path d="M4,6.00032778 C4,4.89557725 4.89533389,4 5.99523815,4 L59.0047619,4 C60.1067015,4 61,4.89137456 61,6.00032778 L61,78.9996722 C61,80.1044227 60.1046661,81 59.0047619,81 L5.99523815,81 C4.89329855,81 4,80.1086254 4,78.9996722 L4,6.00032778 Z M65,14 C65,15.1045695 64.1045695,16 63,16 C61.8954305,16 61,15.1045695 61,14 L61,22 C61,20.8954305 61.8954305,20 63,20 C64.1045695,20 65,20.8954305 65,22 L65,14 Z M0,3.99989145 C0,1.7908124 1.78927099,0 3.99255897,0 L61.007441,0 C63.2124705,0 65,1.79495748 65,3.99989145 L65,81.0001086 C65,83.2091876 63.210729,85 61.007441,85 L3.99255897,85 C1.78752954,85 0,83.2050425 0,81.0001086 L0,3.99989145 Z M10,14 C10,15.1122704 10.896211,16 12.0017433,16 L39.9982567,16 C41.1107383,16 42,15.1045695 42,14 C42,12.8877296 41.103789,12 39.9982567,12 L12.0017433,12 C10.8892617,12 10,12.8954305 10,14 Z M47,14 C47,15.1122704 47.8945804,16 48.9981014,16 L53.0018986,16 C54.1132936,16 55,15.1045695 55,14 C55,12.8877296 54.1054196,12 53.0018986,12 L48.9981014,12 C47.8867064,12 47,12.8954305 47,14 Z M39,24 C39,25.1122704 39.8927712,26 40.9940603,26 L53.0059397,26 C54.1054862,26 55,25.1045695 55,24 C55,22.8877296 54.1072288,22 53.0059397,22 L40.9940603,22 C39.8945138,22 39,22.8954305 39,24 Z M10,24 C10,25.1122704 10.8914705,26 11.991155,26 L30.008845,26 C31.1103261,26 32,25.1045695 32,24 C32,22.8877296 31.1085295,22 30.008845,22 L11.991155,22 C10.8896739,22 10,22.8954305 10,24 Z M10,34 C10,35.1122704 10.8952994,36 11.9997073,36 L44.0002927,36 C45.1101074,36 46,35.1045695 46,34 C46,32.8877296 45.1047006,32 44.0002927,32 L11.9997073,32 C10.8898926,32 10,32.8954305 10,34 Z M10,64 C10,70.076468 14.9285562,75 21.0082384,75 L43.9917616,75 C50.077037,75 55,70.0751322 55,64 C55,57.923532 50.0714438,53 43.9917616,53 L21.0082384,53 C14.922963,53 10,57.9248678 10,64 Z" id="ICN" fill="#000000"></path>
            <path d="M10,81 L10,83 L2,83 L2,3 L10,3 L10,4 C8.8954305,4 8,4.8954305 8,6 L8,79 C8,80.1045695 8.8954305,81 10,81 Z" id="innerSHDW" fill="#000000" opacity="0.25"></path>
            <text id="FILE" font-family="LucidaGrande-Bold, Lucida Grande" font-size="13" font-weight="bold" fill="#FFFFFF">
                <tspan x="19" y="69">FILE</tspan>
            </text>
        </g>
    </g>
</svg>